<svg xmlns="http://www.w3.org/2000/svg" xmlns:xlink="http://www.w3.org/1999/xlink" viewBox="0 0 72 72"><defs><style>.cls-1{fill:none;}.cls-2{stroke:#fff;stroke-miterlimit:10;stroke-width:0.13px;fill:url(#linear-gradient);}.cls-3{fill:#fff;}</style><linearGradient id="linear-gradient" x1="53.52" y1="52.73" x2="18.48" y2="17.69" gradientUnits="userSpaceOnUse"><stop offset="0" stop-color="#fff"/><stop offset="0" stop-color="#636161"/><stop offset="0.09" stop-color="#5a5858"/><stop offset="0.24" stop-color="#403f3f"/><stop offset="0.44" stop-color="#161616"/><stop offset="0.53"/></linearGradient></defs><title>background</title><g id="Layer_2" data-name="Layer 2"><g id="Foreground_Layer" data-name="Foreground Layer"><rect class="cls-1" width="72" height="72"/><path class="cls-2" d="M35.68,17.89H20.33a5,5,0,0,0-4.95,4.95V47.59a5,5,0,0,0,4.95,4.95H31.88L36,61.61l4.13-9.07H51.67a5,5,0,0,0,4.95-4.95V22.84a5,5,0,0,0-4.95-4.95h-16Z"/><rect class="cls-3" x="25.61" y="30.67" width="20.79" height="16.34" rx="2"/><path class="cls-3" d="M30.06,27.7a5.94,5.94,0,0,1,11.88,0v3l-11.88,0Zm1.49,3h8.91V28.19A4.72,4.72,0,0,0,36,23.25a4.71,4.71,0,0,0-4.45,4.94Z"/></g></g></svg>